<svg width="132" height="29" viewBox="0 0 132 29" fill="none" xmlns="http://www.w3.org/2000/svg">
<path d="M53 6L54.41 7.41L48.83 13H61V15H48.83L54.41 20.59L53 22L45 14L53 6Z" fill="#FFE4CB"/>
<path d="M14 20H32V18H14V20ZM14 15H32V13H14V15ZM14 8V10H32V8H14Z" fill="#FFE4CB"/>
<path d="M88 8.41L86.59 7L81 12.59L75.41 7L74 8.41L79.59 14L74 19.59L75.41 21L81 15.41L86.59 21L88 19.59L82.41 14L88 8.41Z" fill="#FFE4CB"/>
<path d="M102.939 9L109.25 15.2975L115.561 9L117.5 10.9387L109.25 19.1887L101 10.9387L102.939 9Z" fill="#4E4135"/>
</svg>
